<?xml version="1.0" encoding="UTF-8"?>
<!DOCTYPE svg PUBLIC "-//W3C//DTD SVG 1.1//EN" "http://www.w3.org/Graphics/SVG/1.1/DTD/svg11.dtd">
<svg version="1.1" xmlns="http://www.w3.org/2000/svg" xmlns:xlink="http://www.w3.org/1999/xlink" x="0" y="0" width="400" height="400" viewBox="0, 0, 400, 400">
  <g id="Layer_2">
    <path d="M38.916,3.741 C38.916,3.741 25.26,2.579 14.682,13.11 C4.088,23.658 4.963,37.568 4.963,37.568 L4.963,287.525 C4.963,287.525 5.276,302.942 15.524,312.105 C25.809,321.301 38.816,321.025 38.816,321.025 L62.339,321.025 C62.339,321.025 81.045,319.667 88.124,311.137 C95.626,302.667 97.242,288.639 97.242,288.639 L97.242,269.726 C97.242,269.726 97.642,258.11 104.285,252.085 C111.053,245.945 123.778,245.953 123.778,245.953 L202.353,245.953 C202.353,245.953 215.666,246.17 222.041,250.482 C230.19,255.995 229.124,274.25 229.124,274.25 L229.124,286.378 C229.124,286.378 228.483,298.381 237.24,309.909 C245.997,321.436 266.172,321.025 266.172,321.025 L278.761,321.025 C278.761,321.025 278.761,321.025 278.761,321.025 C278.761,321.025 292.283,321.518 297.645,325.725 C303.006,329.931 304.166,343.876 304.166,343.876 L304.166,362.607 C304.166,362.607 305.233,380.209 314.9,387.837 C324.568,395.464 338.466,395.997 338.466,395.997 L362.288,395.997 C362.288,395.997 381.654,393.977 388.34,386.465 C395.911,377.957 397.219,362.113 397.219,362.113 L397.219,337.215 C397.219,337.215 396.379,321.025 386.445,311.682 C376.931,302.735 362.896,303.108 362.896,303.108 L343.35,302.92 C343.35,302.92 331.492,301.452 327.628,297.547 C323.051,292.92 322.166,279.536 322.166,279.536 L322.166,261.069 C322.166,261.069 321.406,246.877 312.94,237.564 C304.474,228.251 287.666,227.92 287.666,227.92 L270.353,227.92 C270.353,227.92 255.153,226.034 251.402,220.784 C247.652,215.533 247.291,205.857 247.291,205.857 L247.228,191.92 C247.228,191.92 249.115,180.93 253.478,176.67 C257.841,172.41 270.728,171.795 270.728,171.795 L289.291,171.795 C289.291,171.795 307.733,170.529 315.546,158.904 C323.358,147.279 322.166,137.551 322.166,137.551 L322.166,115.014 C322.166,115.014 323.351,100.541 313.796,89.451 C304.845,79.064 286.233,78.67 286.233,78.67 L263.421,78.67 C263.421,78.67 251.034,78.662 240.335,86.639 C229.773,94.514 229.124,113.764 229.124,113.764 L229.124,131.562 C229.124,131.562 227.967,142.903 223.236,147.872 C219.394,151.906 204.786,153.861 204.786,153.861 L119.882,153.718 C119.882,153.718 109.324,152.462 103.761,147.07 C98.199,141.677 97.242,131.176 97.242,131.176 C97.242,131.176 97.242,38.424 97.242,35.891 C97.242,33.357 94.768,17.831 85.154,11.063 C75.541,4.295 68.291,3.762 64.228,3.741 C60.166,3.721 38.916,3.741 38.916,3.741 z" fill="#000000"/>
  </g>
</svg>
